# xmcd CD database file
#
# Track frame offsets:
#	150
#	10347
#	22062
#	32775
#	42385
#	52280
#	63420
#	74042
#	85330
#	96517
#	106587
#	119437
#
# Disc length: 1728 seconds
#
# Revision: 3
# Processed by: cddbd v1.5.2PL0 Copyright (c) Steve Scherf et al.
# Submitted via: CDex 1.51
#
DISCID=af06be0c
DTITLE=Buck Owens - You're For Me
DYEAR=1962
DGENRE=Country
TTITLE0=You're For Me
TTITLE1=Fool Me Again
TTITLE2=Down On The Corner Of Love
TTITLE3=Mexican Polka
TTITLE4=Mirror, Mirror On The Wall
TTITLE5=Bad Bad Dream
TTITLE6=Under The Influence Of Love
TTITLE7=Nobody's Fool But Yours
TTITLE8=House Down The Block
TTITLE9=Country Polka
TTITLE10=Down To The River
TTITLE11=Blues For Life
EXTD=YEAR: 1962
EXTT0=
EXTT1=
EXTT2=
EXTT3=
EXTT4=
EXTT5=
EXTT6=
EXTT7=
EXTT8=
EXTT9=
EXTT10=
EXTT11=
PLAYORDER=
